#usda 1.0
(
    defaultPrim = "Blocky"
    metersPerUnit = 1
    upAxis = "Y"
)

def SkelRoot "Blocky" (
    prepend apiSchemas = ["SkelBindingAPI"]
)
{
    rel skel:skeleton = </Blocky/Skeleton>

    def Skeleton "Skeleton"
    {
        uniform token[] joints = ["root", "root/hips_joint", "root/hips_joint/spine_1_joint", "root/hips_joint/spine_1_joint/spine_2_joint", "root/hips_joint/spine_1_joint/spine_2_joint/spine_3_joint", "root/hips_joint/spine_1_joint/spine_2_joint/spine_3_joint/spine_4_joint", "root/hips_joint/spine_1_joint/spine_2_joint/spine_3_joint/spine_4_joint/spine_5_joint", "root/hips_joint/spine_1_joint/spine_2_joint/spine_3_joint/spine_4_joint/spine_5_joint/spine_6_joint", "root/hips_joint/spine_1_joint/spine_2_joint/spine_3_joint/spine_4_joint/spine_5_joint/spine_6_joint/spine_7_joint", "root/hips_joint/spine_1_joint/spine_2_joint/spine_3_joint/spine_4_joint/spine_5_joint/spine_6_joint/spine_7_joint/neck_1_joint", "root/hips_joint/spine_1_joint/spine_2_joint/spine_3_joint/spine_4_joint/spine_5_joint/spine_6_joint/spine_7_joint/neck_1_joint/neck_2_joint", "root/hips_joint/spine_1_joint/spine_2_joint/spine_3_joint/spine_4_joint/spine_5_joint/spine_6_joint/spine_7_joint/neck_1_joint/neck_2_joint/neck_3_joint", "root/hips_joint/spine_1_joint/spine_2_joint/spine_3_joint/spine_4_joint/spine_5_joint/spine_6_joint/spine_7_joint/neck_1_joint/neck_2_joint/neck_3_joint/neck_4_joint", "root/hips_joint/spine_1_joint/spine_2_joint/spine_3_joint/spine_4_joint/spine_5_joint/spine_6_joint/spine_7_joint/neck_1_joint/neck_2_joint/neck_3_joint/neck_4_joint/head_joint", "root/hips_joint/spine_1_joint/spine_2_joint/spine_3_joint/spine_4_joint/spine_5_joint/spine_6_joint/spine_7_joint/neck_1_joint/neck_2_joint/neck_3_joint/neck_4_joint/head_joint/jaw_joint", "root/hips_joint/spine_1_joint/spine_2_joint/spine_3_joint/spine_4_joint/spine_5_joint/spine_6_joint/spine_7_joint/neck_1_joint/neck_2_joint/neck_3_joint/neck_4_joint/head_joint/jaw_joint/chin_joint", "root/hips_joint/spine_1_joint/spine_2_joint/spine_3_joint/spine_4_joint/spine_5_joint/spine_6_joint/spine_7_joint/neck_1_joint/neck_2_joint/neck_3_joint/neck_4_joint/head_joint/nose_joint", "root/hips_joint/spine_1_joint/spine_2_joint/spine_3_joint/spine_4_joint/spine_5_joint/spine_6_joint/spine_7_joint/neck_1_joint/neck_2_joint/neck_3_joint/neck_4_joint/head_joint/right_eye_joint", "root/hips_joint/spine_1_joint/spine_2_joint/spine_3_joint/spine_4_joint/spine_5_joint/spine_6_joint/spine_7_joint/neck_1_joint/neck_2_joint/neck_3_joint/neck_4_joint/head_joint/right_eye_joint/right_eyeUpperLid_joint", "root/hips_joint/spine_1_joint/spine_2_joint/spine_3_joint/spine_4_joint/spine_5_joint/spine_6_joint/spine_7_joint/neck_1_joint/neck_2_joint/neck_3_joint/neck_4_joint/head_joint/right_eye_joint/right_eyeLowerLid_joint", "root/hips_joint/spine_1_joint/spine_2_joint/spine_3_joint/spine_4_joint/spine_5_joint/spine_6_joint/spine_7_joint/neck_1_joint/neck_2_joint/neck_3_joint/neck_4_joint/head_joint/right_eye_joint/right_eyeball_joint", "root/hips_joint/spine_1_joint/spine_2_joint/spine_3_joint/spine_4_joint/spine_5_joint/spine_6_joint/spine_7_joint/neck_1_joint/neck_2_joint/neck_3_joint/neck_4_joint/head_joint/left_eye_joint", "root/hips_joint/spine_1_joint/spine_2_joint/spine_3_joint/spine_4_joint/spine_5_joint/spine_6_joint/spine_7_joint/neck_1_joint/neck_2_joint/neck_3_joint/neck_4_joint/head_joint/left_eye_joint/left_eyeUpperLid_joint", "root/hips_joint/spine_1_joint/spine_2_joint/spine_3_joint/spine_4_joint/spine_5_joint/spine_6_joint/spine_7_joint/neck_1_joint/neck_2_joint/neck_3_joint/neck_4_joint/head_joint/left_eye_joint/left_eyeLowerLid_joint", "root/hips_joint/spine_1_joint/spine_2_joint/spine_3_joint/spine_4_joint/spine_5_joint/spine_6_joint/spine_7_joint/neck_1_joint/neck_2_joint/neck_3_joint/neck_4_joint/head_joint/left_eye_joint/left_eyeball_joint", "root/hips_joint/spine_1_joint/spine_2_joint/spine_3_joint/spine_4_joint/spine_5_joint/spine_6_joint/spine_7_joint/right_shoulder_1_joint", "root/hips_joint/spine_1_joint/spine_2_joint/spine_3_joint/spine_4_joint/spine_5_joint/spine_6_joint/spine_7_joint/right_shoulder_1_joint/right_arm_joint", "root/hips_joint/spine_1_joint/spine_2_joint/spine_3_joint/spine_4_joint/spine_5_joint/spine_6_joint/spine_7_joint/right_shoulder_1_joint/right_arm_joint/right_forearm_joint", "root/hips_joint/spine_1_joint/spine_2_joint/spine_3_joint/spine_4_joint/spine_5_joint/spine_6_joint/spine_7_joint/right_shoulder_1_joint/right_arm_joint/right_forearm_joint/right_hand_joint", "root/hips_joint/spine_1_joint/spine_2_joint/spine_3_joint/spine_4_joint/spine_5_joint/spine_6_joint/spine_7_joint/right_shoulder_1_joint/right_arm_joint/right_forearm_joint/right_hand_joint/right_handPinkyStart_joint", "root/hips_joint/spine_1_joint/spine_2_joint/spine_3_joint/spine_4_joint/spine_5_joint/spine_6_joint/spine_7_joint/right_shoulder_1_joint/right_arm_joint/right_forearm_joint/right_hand_joint/right_handPinkyStart_joint/right_handPinky_1_joint", "root/hips_joint/spine_1_joint/spine_2_joint/spine_3_joint/spine_4_joint/spine_5_joint/spine_6_joint/spine_7_joint/right_shoulder_1_joint/right_arm_joint/right_forearm_joint/right_hand_joint/right_handPinkyStart_joint/right_handPinky_1_joint/right_handPinky_2_joint", "root/hips_joint/spine_1_joint/spine_2_joint/spine_3_joint/spine_4_joint/spine_5_joint/spine_6_joint/spine_7_joint/right_shoulder_1_joint/right_arm_joint/right_forearm_joint/right_hand_joint/right_handPinkyStart_joint/right_handPinky_1_joint/right_handPinky_2_joint/right_handPinky_3_joint", "root/hips_joint/spine_1_joint/spine_2_joint/spine_3_joint/spine_4_joint/spine_5_joint/spine_6_joint/spine_7_joint/right_shoulder_1_joint/right_arm_joint/right_forearm_joint/right_hand_joint/right_handPinkyStart_joint/right_handPinky_1_joint/right_handPinky_2_joint/right_handPinky_3_joint/right_handPinkyEnd_joint", "root/hips_joint/spine_1_joint/spine_2_joint/spine_3_joint/spine_4_joint/spine_5_joint/spine_6_joint/spine_7_joint/right_shoulder_1_joint/right_arm_joint/right_forearm_joint/right_hand_joint/right_handRingStart_joint", "root/hips_joint/spine_1_joint/spine_2_joint/spine_3_joint/spine_4_joint/spine_5_joint/spine_6_joint/spine_7_joint/right_shoulder_1_joint/right_arm_joint/right_forearm_joint/right_hand_joint/right_handRingStart_joint/right_handRing_1_joint", "root/hips_joint/spine_1_joint/spine_2_joint/spine_3_joint/spine_4_joint/spine_5_joint/spine_6_joint/spine_7_joint/right_shoulder_1_joint/right_arm_joint/right_forearm_joint/right_hand_joint/right_handRingStart_joint/right_handRing_1_joint/right_handRing_2_joint", "root/hips_joint/spine_1_joint/spine_2_joint/spine_3_joint/spine_4_joint/spine_5_joint/spine_6_joint/spine_7_joint/right_shoulder_1_joint/right_arm_joint/right_forearm_joint/right_hand_joint/right_handRingStart_joint/right_handRing_1_joint/right_handRing_2_joint/right_handRing_3_joint", "root/hips_joint/spine_1_joint/spine_2_joint/spine_3_joint/spine_4_joint/spine_5_joint/spine_6_joint/spine_7_joint/right_shoulder_1_joint/right_arm_joint/right_forearm_joint/right_hand_joint/right_handRingStart_joint/right_handRing_1_joint/right_handRing_2_joint/right_handRing_3_joint/right_handRingEnd_joint", "root/hips_joint/spine_1_joint/spine_2_joint/spine_3_joint/spine_4_joint/spine_5_joint/spine_6_joint/spine_7_joint/right_shoulder_1_joint/right_arm_joint/right_forearm_joint/right_hand_joint/right_handMidStart_joint", "root/hips_joint/spine_1_joint/spine_2_joint/spine_3_joint/spine_4_joint/spine_5_joint/spine_6_joint/spine_7_joint/right_shoulder_1_joint/right_arm_joint/right_forearm_joint/right_hand_joint/right_handMidStart_joint/right_handMid_1_joint", "root/hips_joint/spine_1_joint/spine_2_joint/spine_3_joint/spine_4_joint/spine_5_joint/spine_6_joint/spine_7_joint/right_shoulder_1_joint/right_arm_joint/right_forearm_joint/right_hand_joint/right_handMidStart_joint/right_handMid_1_joint/right_handMid_2_joint", "root/hips_joint/spine_1_joint/spine_2_joint/spine_3_joint/spine_4_joint/spine_5_joint/spine_6_joint/spine_7_joint/right_shoulder_1_joint/right_arm_joint/right_forearm_joint/right_hand_joint/right_handMidStart_joint/right_handMid_1_joint/right_handMid_2_joint/right_handMid_3_joint", "root/hips_joint/spine_1_joint/spine_2_joint/spine_3_joint/spine_4_joint/spine_5_joint/spine_6_joint/spine_7_joint/right_shoulder_1_joint/right_arm_joint/right_forearm_joint/right_hand_joint/right_handMidStart_joint/right_handMid_1_joint/right_handMid_2_joint/right_handMid_3_joint/right_handMidEnd_joint", "root/hips_joint/spine_1_joint/spine_2_joint/spine_3_joint/spine_4_joint/spine_5_joint/spine_6_joint/spine_7_joint/right_shoulder_1_joint/right_arm_joint/right_forearm_joint/right_hand_joint/right_handIndexStart_joint", "root/hips_joint/spine_1_joint/spine_2_joint/spine_3_joint/spine_4_joint/spine_5_joint/spine_6_joint/spine_7_joint/right_shoulder_1_joint/right_arm_joint/right_forearm_joint/right_hand_joint/right_handIndexStart_joint/right_handIndex_1_joint", "root/hips_joint/spine_1_joint/spine_2_joint/spine_3_joint/spine_4_joint/spine_5_joint/spine_6_joint/spine_7_joint/right_shoulder_1_joint/right_arm_joint/right_forearm_joint/right_hand_joint/right_handIndexStart_joint/right_handIndex_1_joint/right_handIndex_2_joint", "root/hips_joint/spine_1_joint/spine_2_joint/spine_3_joint/spine_4_joint/spine_5_joint/spine_6_joint/spine_7_joint/right_shoulder_1_joint/right_arm_joint/right_forearm_joint/right_hand_joint/right_handIndexStart_joint/right_handIndex_1_joint/right_handIndex_2_joint/right_handIndex_3_joint", "root/hips_joint/spine_1_joint/spine_2_joint/spine_3_joint/spine_4_joint/spine_5_joint/spine_6_joint/spine_7_joint/right_shoulder_1_joint/right_arm_joint/right_forearm_joint/right_hand_joint/right_handIndexStart_joint/right_handIndex_1_joint/right_handIndex_2_joint/right_handIndex_3_joint/right_handIndexEnd_joint", "root/hips_joint/spine_1_joint/spine_2_joint/spine_3_joint/spine_4_joint/spine_5_joint/spine_6_joint/spine_7_joint/right_shoulder_1_joint/right_arm_joint/right_forearm_joint/right_hand_joint/right_handThumbStart_joint", "root/hips_joint/spine_1_joint/spine_2_joint/spine_3_joint/spine_4_joint/spine_5_joint/spine_6_joint/spine_7_joint/right_shoulder_1_joint/right_arm_joint/right_forearm_joint/right_hand_joint/right_handThumbStart_joint/right_handThumb_1_joint", "root/hips_joint/spine_1_joint/spine_2_joint/spine_3_joint/spine_4_joint/spine_5_joint/spine_6_joint/spine_7_joint/right_shoulder_1_joint/right_arm_joint/right_forearm_joint/right_hand_joint/right_handThumbStart_joint/right_handThumb_1_joint/right_handThumb_2_joint", "root/hips_joint/spine_1_joint/spine_2_joint/spine_3_joint/spine_4_joint/spine_5_joint/spine_6_joint/spine_7_joint/right_shoulder_1_joint/right_arm_joint/right_forearm_joint/right_hand_joint/right_handThumbStart_joint/right_handThumb_1_joint/right_handThumb_2_joint/right_handThumbEnd_joint", "root/hips_joint/spine_1_joint/spine_2_joint/spine_3_joint/spine_4_joint/spine_5_joint/spine_6_joint/spine_7_joint/left_shoulder_1_joint", "root/hips_joint/spine_1_joint/spine_2_joint/spine_3_joint/spine_4_joint/spine_5_joint/spine_6_joint/spine_7_joint/left_shoulder_1_joint/left_arm_joint", "root/hips_joint/spine_1_joint/spine_2_joint/spine_3_joint/spine_4_joint/spine_5_joint/spine_6_joint/spine_7_joint/left_shoulder_1_joint/left_arm_joint/left_forearm_joint", "root/hips_joint/spine_1_joint/spine_2_joint/spine_3_joint/spine_4_joint/spine_5_joint/spine_6_joint/spine_7_joint/left_shoulder_1_joint/left_arm_joint/left_forearm_joint/left_hand_joint", "root/hips_joint/spine_1_joint/spine_2_joint/spine_3_joint/spine_4_joint/spine_5_joint/spine_6_joint/spine_7_joint/left_shoulder_1_joint/left_arm_joint/left_forearm_joint/left_hand_joint/left_handPinkyStart_joint", "root/hips_joint/spine_1_joint/spine_2_joint/spine_3_joint/spine_4_joint/spine_5_joint/spine_6_joint/spine_7_joint/left_shoulder_1_joint/left_arm_joint/left_forearm_joint/left_hand_joint/left_handPinkyStart_joint/left_handPinky_1_joint", "root/hips_joint/spine_1_joint/spine_2_joint/spine_3_joint/spine_4_joint/spine_5_joint/spine_6_joint/spine_7_joint/left_shoulder_1_joint/left_arm_joint/left_forearm_joint/left_hand_joint/left_handPinkyStart_joint/left_handPinky_1_joint/left_handPinky_2_joint", "root/hips_joint/spine_1_joint/spine_2_joint/spine_3_joint/spine_4_joint/spine_5_joint/spine_6_joint/spine_7_joint/left_shoulder_1_joint/left_arm_joint/left_forearm_joint/left_hand_joint/left_handPinkyStart_joint/left_handPinky_1_joint/left_handPinky_2_joint/left_handPinky_3_joint", "root/hips_joint/spine_1_joint/spine_2_joint/spine_3_joint/spine_4_joint/spine_5_joint/spine_6_joint/spine_7_joint/left_shoulder_1_joint/left_arm_joint/left_forearm_joint/left_hand_joint/left_handPinkyStart_joint/left_handPinky_1_joint/left_handPinky_2_joint/left_handPinky_3_joint/left_handPinkyEnd_joint", "root/hips_joint/spine_1_joint/spine_2_joint/spine_3_joint/spine_4_joint/spine_5_joint/spine_6_joint/spine_7_joint/left_shoulder_1_joint/left_arm_joint/left_forearm_joint/left_hand_joint/left_handRingStart_joint", "root/hips_joint/spine_1_joint/spine_2_joint/spine_3_joint/spine_4_joint/spine_5_joint/spine_6_joint/spine_7_joint/left_shoulder_1_joint/left_arm_joint/left_forearm_joint/left_hand_joint/left_handRingStart_joint/left_handRing_1_joint", "root/hips_joint/spine_1_joint/spine_2_joint/spine_3_joint/spine_4_joint/spine_5_joint/spine_6_joint/spine_7_joint/left_shoulder_1_joint/left_arm_joint/left_forearm_joint/left_hand_joint/left_handRingStart_joint/left_handRing_1_joint/left_handRing_2_joint", "root/hips_joint/spine_1_joint/spine_2_joint/spine_3_joint/spine_4_joint/spine_5_joint/spine_6_joint/spine_7_joint/left_shoulder_1_joint/left_arm_joint/left_forearm_joint/left_hand_joint/left_handRingStart_joint/left_handRing_1_joint/left_handRing_2_joint/left_handRing_3_joint", "root/hips_joint/spine_1_joint/spine_2_joint/spine_3_joint/spine_4_joint/spine_5_joint/spine_6_joint/spine_7_joint/left_shoulder_1_joint/left_arm_joint/left_forearm_joint/left_hand_joint/left_handRingStart_joint/left_handRing_1_joint/left_handRing_2_joint/left_handRing_3_joint/left_handRingEnd_joint", "root/hips_joint/spine_1_joint/spine_2_joint/spine_3_joint/spine_4_joint/spine_5_joint/spine_6_joint/spine_7_joint/left_shoulder_1_joint/left_arm_joint/left_forearm_joint/left_hand_joint/left_handMidStart_joint", "root/hips_joint/spine_1_joint/spine_2_joint/spine_3_joint/spine_4_joint/spine_5_joint/spine_6_joint/spine_7_joint/left_shoulder_1_joint/left_arm_joint/left_forearm_joint/left_hand_joint/left_handMidStart_joint/left_handMid_1_joint", "root/hips_joint/spine_1_joint/spine_2_joint/spine_3_joint/spine_4_joint/spine_5_joint/spine_6_joint/spine_7_joint/left_shoulder_1_joint/left_arm_joint/left_forearm_joint/left_hand_joint/left_handMidStart_joint/left_handMid_1_joint/left_handMid_2_joint", "root/hips_joint/spine_1_joint/spine_2_joint/spine_3_joint/spine_4_joint/spine_5_joint/spine_6_joint/spine_7_joint/left_shoulder_1_joint/left_arm_joint/left_forearm_joint/left_hand_joint/left_handMidStart_joint/left_handMid_1_joint/left_handMid_2_joint/left_handMid_3_joint", "root/hips_joint/spine_1_joint/spine_2_joint/spine_3_joint/spine_4_joint/spine_5_joint/spine_6_joint/spine_7_joint/left_shoulder_1_joint/left_arm_joint/left_forearm_joint/left_hand_joint/left_handMidStart_joint/left_handMid_1_joint/left_handMid_2_joint/left_handMid_3_joint/left_handMidEnd_joint", "root/hips_joint/spine_1_joint/spine_2_joint/spine_3_joint/spine_4_joint/spine_5_joint/spine_6_joint/spine_7_joint/left_shoulder_1_joint/left_arm_joint/left_forearm_joint/left_hand_joint/left_handIndexStart_joint", "root/hips_joint/spine_1_joint/spine_2_joint/spine_3_joint/spine_4_joint/spine_5_joint/spine_6_joint/spine_7_joint/left_shoulder_1_joint/left_arm_joint/left_forearm_joint/left_hand_joint/left_handIndexStart_joint/left_handIndex_1_joint", "root/hips_joint/spine_1_joint/spine_2_joint/spine_3_joint/spine_4_joint/spine_5_joint/spine_6_joint/spine_7_joint/left_shoulder_1_joint/left_arm_joint/left_forearm_joint/left_hand_joint/left_handIndexStart_joint/left_handIndex_1_joint/left_handIndex_2_joint", "root/hips_joint/spine_1_joint/spine_2_joint/spine_3_joint/spine_4_joint/spine_5_joint/spine_6_joint/spine_7_joint/left_shoulder_1_joint/left_arm_joint/left_forearm_joint/left_hand_joint/left_handIndexStart_joint/left_handIndex_1_joint/left_handIndex_2_joint/left_handIndex_3_joint", "root/hips_joint/spine_1_joint/spine_2_joint/spine_3_joint/spine_4_joint/spine_5_joint/spine_6_joint/spine_7_joint/left_shoulder_1_joint/left_arm_joint/left_forearm_joint/left_hand_joint/left_handIndexStart_joint/left_handIndex_1_joint/left_handIndex_2_joint/left_handIndex_3_joint/left_handIndexEnd_joint", "root/hips_joint/spine_1_joint/spine_2_joint/spine_3_joint/spine_4_joint/spine_5_joint/spine_6_joint/spine_7_joint/left_shoulder_1_joint/left_arm_joint/left_forearm_joint/left_hand_joint/left_handThumbStart_joint", "root/hips_joint/spine_1_joint/spine_2_joint/spine_3_joint/spine_4_joint/spine_5_joint/spine_6_joint/spine_7_joint/left_shoulder_1_joint/left_arm_joint/left_forearm_joint/left_hand_joint/left_handThumbStart_joint/left_handThumb_1_joint", "root/hips_joint/spine_1_joint/spine_2_joint/spine_3_joint/spine_4_joint/spine_5_joint/spine_6_joint/spine_7_joint/left_shoulder_1_joint/left_arm_joint/left_forearm_joint/left_hand_joint/left_handThumbStart_joint/left_handThumb_1_joint/left_handThumb_2_joint", "root/hips_joint/spine_1_joint/spine_2_joint/spine_3_joint/spine_4_joint/spine_5_joint/spine_6_joint/spine_7_joint/left_shoulder_1_joint/left_arm_joint/left_forearm_joint/left_hand_joint/left_handThumbStart_joint/left_handThumb_1_joint/left_handThumb_2_joint/left_handThumbEnd_joint", "root/hips_joint/left_upLeg_joint", "root/hips_joint/left_upLeg_joint/left_leg_joint", "root/hips_joint/left_upLeg_joint/left_leg_joint/left_foot_joint", "root/hips_joint/left_upLeg_joint/left_leg_joint/left_foot_joint/left_toes_joint", "root/hips_joint/left_upLeg_joint/left_leg_joint/left_foot_joint/left_toes_joint/left_toesEnd_joint", "root/hips_joint/right_upLeg_joint", "root/hips_joint/right_upLeg_joint/right_leg_joint", "root/hips_joint/right_upLeg_joint/right_leg_joint/right_foot_joint", "root/hips_joint/right_upLeg_joint/right_leg_joint/right_foot_joint/right_toes_joint", "root/hips_joint/right_upLeg_joint/right_leg_joint/right_foot_joint/right_toes_joint/right_toesEnd_joint"]
        uniform matrix4d[] bindTransforms = [( (1.2688e-08, 1, 0, 0), (-1, 1.2688e-08, 0, 0), (0, 0, 1, 0), (0, 0, 0, 1) ), ( (-1.2001e-08, 1, 0, 0), (-1, -1.2001e-08, 0, 0), (0, 0, 1, 0), (-2.8842e-09, 0.92, 0, 1) ), ( (-6.8877e-09, 1, 0, 0), (-1, -6.8877e-09, 0, 0), (0, 0, 1, 0), (-1.1616e-09, 0.98, 0, 1) ), ( (-1.7744e-09, 1, 0, 0), (-1, -1.7744e-09, 0, 0), (0, 0, 1, 0), (6.8918e-11, 1.0467, 0, 1) ), ( (3.3389e-09, 1, 0, 0), (-1, 3.3389e-09, 0, 0), (0, 0, 1, 0), (-7.0577e-10, 1.1134, 0, 1) ), ( (8.4522e-09, 1, 0, 0), (-1, 8.4522e-09, 0, 0), (0, 0, 1, 0), (2.3962e-10, 1.1801, 0, 1) ), ( (1.3565e-08, 1, 0, 0), (-1, 1.3565e-08, 0, 0), (0, 0, 1, 0), (-8.2019e-10, 1.2468, 0, 1) ), ( (-1.1124e-08, 1, 0, 0), (-1, -1.1124e-08, 0, 0), (0, 0, 1, 0), (-3.8852e-09, 1.3135, 0, 1) ), ( (-6.0102e-09, 1, 0, 0), (-1, -6.0102e-09, 0, 0), (0, 0, 1, 0), (-3.5774e-09, 1.3802, 0, 1) ), ( (-8.9686e-10, 1, 0, 0), (-1, -8.9686e-10, 0, 0), (0, 0, 1, 0), (-4.0502e-09, 1.42, 0, 1) ), ( (4.2165e-09, 1, 0, 0), (-1, 4.2165e-09, 0, 0), (0, 0, 1, 0), (-5.2547e-09, 1.453, 0, 1) ), ( (9.3298e-09, 1, 0, 0), (-1, 9.3298e-09, 0, 0), (0, 0, 1, 0), (-7.4765e-09, 1.486, 0, 1) ), ( (1.4443e-08, 1, 0, 0), (-1, 1.4443e-08, 0, 0), (0, 0, 1, 0), (-8.8531e-09, 1.519, 0, 1) ), ( (7.4048e-08, 1, 0, 0), (-1, 7.4048e-08, 0, 0), (0, 0, 1, 0), (-9.0112e-09, 1.55, 0, 1) ), ( (-1.0824e-07, -0.51449, 0.85749, 0), (1, -6.716e-08, 9.1133e-08, 0), (-5.1473e-09, 0.85749, 0.51449, 0), (-8.746e-09, 1.56, 0.04, 1) ), ( (-4.8637e-08, -0.51449, 0.85749, 0), (1, -8.7926e-08, -5.1473e-09, 0), (9.1133e-08, 0.85749, 0.51449, 0), (-8.5609e-09, 1.53, 0.09, 1) ), ( (7.4048e-08, 1, 0, 0), (-1, 7.4048e-08, 0, 0), (0, 0, 1, 0), (-8.8511e-09, 1.62, 0.1, 1) ), ( (2.5668e-13, 5.1337e-13, 1, 0), (1, -2.5668e-13, 5.1337e-13, 0), (5.1337e-13, 1, -2.5668e-13, 0), (-0.03, 1.64, 0.08, 1) ), ( (2.5668e-13, 5.1337e-13, 1, 0), (1, -2.5668e-13, 5.1337e-13, 0), (5.1337e-13, 1, -2.5668e-13, 0), (-0.03, 1.655, 0.09, 1) ), ( (2.5668e-13, 5.1337e-13, 1, 0), (1, -2.5668e-13, 5.1337e-13, 0), (5.1337e-13, 1, -2.5668e-13, 0), (-0.03, 1.625, 0.09, 1) ), ( (2.5668e-13, 5.1337e-13, 1, 0), (1, -2.5668e-13, 5.1337e-13, 0), (5.1337e-13, 1, -2.5668e-13, 0), (-0.03, 1.64, 0.1, 1) ), ( (2.5668e-13, 5.1337e-13, 1, 0), (1, -2.5668e-13, 5.1337e-13, 0), (5.1337e-13, 1, -2.5668e-13, 0), (0.03, 1.64, 0.08, 1) ), ( (2.5668e-13, 5.1337e-13, 1, 0), (1, -2.5668e-13, 5.1337e-13, 0), (5.1337e-13, 1, -2.5668e-13, 0), (0.03, 1.655, 0.09, 1) ), ( (2.5668e-13, 5.1337e-13, 1, 0), (1, -2.5668e-13, 5.1337e-13, 0), (5.1337e-13, 1, -2.5668e-13, 0), (0.03, 1.625, 0.09, 1) ), ( (2.5668e-13, 5.1337e-13, 1, 0), (1, -2.5668e-13, 5.1337e-13, 0), (5.1337e-13, 1, -2.5668e-13, 0), (0.03, 1.64, 0.1, 1) ), ( (-1, -6.6776e-09, 0, 0), (6.6776e-09, -1, 0, 0), (0, 0, 1, 0), (-0.07, 1.4, 0, 1) ), ( (-1, -6.6776e-09, 0, 0), (6.6776e-09, -1, 0, 0), (0, 0, 1, 0), (-0.19, 1.4, 0, 1) ), ( (-1, -6.6776e-09, 0, 0), (6.6776e-09, -1, 0, 0), (0, 0, 1, 0), (-0.47, 1.4, 0, 1) ), ( (-1, -6.6776e-09, 0, 0), (6.6776e-09, -1, 0, 0), (0, 0, 1, 0), (-0.73, 1.4, 0, 1) ), ( (-1, -6.6776e-09, 0, 0), (6.6776e-09, -1, 0, 0), (0, 0, 1, 0), (-0.76, 1.4, -0.04, 1) ), ( (-1, -6.6776e-09, 0, 0), (6.6776e-09, -1, 0, 0), (0, 0, 1, 0), (-0.82, 1.4, -0.04, 1) ), ( (-1, -6.6776e-09, 0, 0), (6.6776e-09, -1, 0, 0), (0, 0, 1, 0), (-0.8515, 1.4, -0.04, 1) ), ( (-1, -6.6776e-09, 0, 0), (6.6776e-09, -1, 0, 0), (0, 0, 1, 0), (-0.8725, 1.4, -0.04, 1) ), ( (-1, -6.6776e-09, 0, 0), (6.6776e-09, -1, 0, 0), (0, 0, 1, 0), (-0.89, 1.4, -0.04, 1) ), ( (-1, -6.6776e-09, 0, 0), (6.6776e-09, -1, 0, 0), (0, 0, 1, 0), (-0.76, 1.4, -0.016, 1) ), ( (-1, -6.6776e-09, 0, 0), (6.6776e-09, -1, 0, 0), (0, 0, 1, 0), (-0.82, 1.4, -0.016, 1) ), ( (-1, -6.6776e-09, 0, 0), (6.6776e-09, -1, 0, 0), (0, 0, 1, 0), (-0.85825, 1.4, -0.016, 1) ), ( (-1, -6.6776e-09, 0, 0), (6.6776e-09, -1, 0, 0), (0, 0, 1, 0), (-0.88375, 1.4, -0.016, 1) ), ( (-1, -6.6776e-09, 0, 0), (6.6776e-09, -1, 0, 0), (0, 0, 1, 0), (-0.905, 1.4, -0.016, 1) ), ( (-1, -6.6776e-09, 0, 0), (6.6776e-09, -1, 0, 0), (0, 0, 1, 0), (-0.76, 1.4, 0, 1) ), ( (-1, -6.6776e-09, 0, 0), (6.6776e-09, -1, 0, 0), (0, 0, 1, 0), (-0.82, 1.4, 0, 1) ), ( (-1, -6.6776e-09, 0, 0), (6.6776e-09, -1, 0, 0), (0, 0, 1, 0), (-0.8605, 1.4, 0, 1) ), ( (-1, -6.6776e-09, 0, 0), (6.6776e-09, -1, 0, 0), (0, 0, 1, 0), (-0.8875, 1.4, 0, 1) ), ( (-1, -6.6776e-09, 0, 0), (6.6776e-09, -1, 0, 0), (0, 0, 1, 0), (-0.91, 1.4, 0, 1) ), ( (-1, -6.6776e-09, 0, 0), (6.6776e-09, -1, 0, 0), (0, 0, 1, 0), (-0.76, 1.4, 0.024, 1) ), ( (-1, -6.6776e-09, 0, 0), (6.6776e-09, -1, 0, 0), (0, 0, 1, 0), (-0.82, 1.4, 0.024, 1) ), ( (-1, -6.6776e-09, 0, 0), (6.6776e-09, -1, 0, 0), (0, 0, 1, 0), (-0.8569, 1.4, 0.024, 1) ), ( (-1, -6.6776e-09, 0, 0), (6.6776e-09, -1, 0, 0), (0, 0, 1, 0), (-0.8815, 1.4, 0.024, 1) ), ( (-1, -6.6776e-09, 0, 0), (6.6776e-09, -1, 0, 0), (0, 0, 1, 0), (-0.902, 1.4, 0.024, 1) ), ( (-0.762, -0.127, 0.635, 0), (0.1644, -0.98639, 8.1272e-09, 0), (0.62636, 0.10439, 0.77251, 0), (-0.75, 1.39, 0.035, 1) ), ( (-0.82416, -0.13736, 0.54944, 0), (0.1644, -0.98639, -7.2873e-10, 0), (0.54197, 0.090327, 0.83553, 0), (-0.78, 1.385, 0.06, 1) ), ( (-0.84515, -0.16903, 0.50709, 0), (0.19612, -0.98058, -4.4671e-09, 0), (0.49724, 0.099449, 0.86189, 0), (-0.81, 1.38, 0.08, 1) ), ( (-0.84515, -0.16903, 0.50709, 0), (0.19612, -0.98058, -1.0834e-08, 0), (0.49724, 0.099449, 0.86189, 0), (-0.835, 1.375, 0.095, 1) ), ( (1, 6.6776e-09, 0, 0), (-6.6776e-09, 1, 0, 0), (0, 0, 1, 0), (0.07, 1.4, 0, 1) ), ( (1, 6.6776e-09, 0, 0), (-6.6776e-09, 1, 0, 0), (0, 0, 1, 0), (0.19, 1.4, 0, 1) ), ( (1, 6.6776e-09, 0, 0), (-6.6776e-09, 1, 0, 0), (0, 0, 1, 0), (0.47, 1.4, 0, 1) ), ( (1, 6.6776e-09, 0, 0), (-6.6776e-09, 1, 0, 0), (0, 0, 1, 0), (0.73, 1.4, 0, 1) ), ( (1, 6.6776e-09, 0, 0), (-6.6776e-09, 1, 0, 0), (0, 0, 1, 0), (0.76, 1.4, -0.04, 1) ), ( (1, 6.6776e-09, 0, 0), (-6.6776e-09, 1, 0, 0), (0, 0, 1, 0), (0.82, 1.4, -0.04, 1) ), ( (1, 6.6776e-09, 0, 0), (-6.6776e-09, 1, 0, 0), (0, 0, 1, 0), (0.8515, 1.4, -0.04, 1) ), ( (1, 6.6776e-09, 0, 0), (-6.6776e-09, 1, 0, 0), (0, 0, 1, 0), (0.8725, 1.4, -0.04, 1) ), ( (1, 6.6776e-09, 0, 0), (-6.6776e-09, 1, 0, 0), (0, 0, 1, 0), (0.89, 1.4, -0.04, 1) ), ( (1, 6.6776e-09, 0, 0), (-6.6776e-09, 1, 0, 0), (0, 0, 1, 0), (0.76, 1.4, -0.016, 1) ), ( (1, 6.6776e-09, 0, 0), (-6.6776e-09, 1, 0, 0), (0, 0, 1, 0), (0.82, 1.4, -0.016, 1) ), ( (1, 6.6776e-09, 0, 0), (-6.6776e-09, 1, 0, 0), (0, 0, 1, 0), (0.85825, 1.4, -0.016, 1) ), ( (1, 6.6776e-09, 0, 0), (-6.6776e-09, 1, 0, 0), (0, 0, 1, 0), (0.88375, 1.4, -0.016, 1) ), ( (1, 6.6776e-09, 0, 0), (-6.6776e-09, 1, 0, 0), (0, 0, 1, 0), (0.905, 1.4, -0.016, 1) ), ( (1, 6.6776e-09, 0, 0), (-6.6776e-09, 1, 0, 0), (0, 0, 1, 0), (0.76, 1.4, 0, 1) ), ( (1, 6.6776e-09, 0, 0), (-6.6776e-09, 1, 0, 0), (0, 0, 1, 0), (0.82, 1.4, 0, 1) ), ( (1, 6.6776e-09, 0, 0), (-6.6776e-09, 1, 0, 0), (0, 0, 1, 0), (0.8605, 1.4, 0, 1) ), ( (1, 6.6776e-09, 0, 0), (-6.6776e-09, 1, 0, 0), (0, 0, 1, 0), (0.8875, 1.4, 0, 1) ), ( (1, 6.6776e-09, 0, 0), (-6.6776e-09, 1, 0, 0), (0, 0, 1, 0), (0.91, 1.4, 0, 1) ), ( (1, 6.6776e-09, 0, 0), (-6.6776e-09, 1, 0, 0), (0, 0, 1, 0), (0.76, 1.4, 0.024, 1) ), ( (1, 6.6776e-09, 0, 0), (-6.6776e-09, 1, 0, 0), (0, 0, 1, 0), (0.82, 1.4, 0.024, 1) ), ( (1, 6.6776e-09, 0, 0), (-6.6776e-09, 1, 0, 0), (0, 0, 1, 0), (0.8569, 1.4, 0.024, 1) ), ( (1, 6.6776e-09, 0, 0), (-6.6776e-09, 1, 0, 0), (0, 0, 1, 0), (0.8815, 1.4, 0.024, 1) ), ( (1, 6.6776e-09, 0, 0), (-6.6776e-09, 1, 0, 0), (0, 0, 1, 0), (0.902, 1.4, 0.024, 1) ), ( (0.762, -0.127, 0.635, 0), (0.1644, 0.98639, 1.505e-08, 0), (-0.62636, 0.10439, 0.77251, 0), (0.75, 1.39, 0.035, 1) ), ( (0.82416, -0.13736, 0.54944, 0), (0.1644, 0.98639, 7.5803e-09, 0), (-0.54197, 0.090327, 0.83553, 0), (0.78, 1.385, 0.06, 1) ), ( (0.84515, -0.16903, 0.50709, 0), (0.19612, 0.98058, 6.7036e-09, 0), (-0.49724, 0.099449, 0.86189, 0), (0.81, 1.38, 0.08, 1) ), ( (0.84515, -0.16903, 0.50709, 0), (0.19612, 0.98058, 1.5767e-08, 0), (-0.49724, 0.099449, 0.86189, 0), (0.835, 1.375, 0.095, 1) ), ( (-6.8877e-09, -1, -0, 0), (1, -6.8877e-09, 0, 0), (0, -0, 1, 0), (0.1, 0.9, 0, 1) ), ( (-1.7744e-09, -1, -0, 0), (1, -1.7744e-09, 0, 0), (0, -0, 1, 0), (0.1, 0.48, 0, 1) ), ( (-1.1167e-07, -0.44721, 0.89443, 0), (1, -1.5978e-07, 6.6977e-08, 0), (1.3263e-07, 0.89443, 0.44721, 0), (0.1, 0.07, 0, 1) ), ( (2.9802e-08, 2.9802e-08, 1, 0), (1, -2.9802e-08, -2.9802e-08, 0), (2.9802e-08, 1, -2.9802e-08, 0), (0.1, 0.02, 0.1, 1) ), ( (2.9802e-08, 2.9802e-08, 1, 0), (1, -2.9802e-08, -2.9802e-08, 0), (2.9802e-08, 1, -2.9802e-08, 0), (0.1, 0.02, 0.18, 1) ), ( (-6.8877e-09, -1, -0, 0), (1, -6.8877e-09, 0, 0), (0, -0, 1, 0), (-0.1, 0.9, 0, 1) ), ( (-1.7744e-09, -1, -0, 0), (1, -1.7744e-09, 0, 0), (0, -0, 1, 0), (-0.1, 0.48, 0, 1) ), ( (-1.1167e-07, -0.44721, 0.89443, 0), (1, -1.5978e-07, 6.6977e-08, 0), (1.3263e-07, 0.89443, 0.44721, 0), (-0.1, 0.07, 0, 1) ), ( (2.9802e-08, 2.9802e-08, 1, 0), (1, -2.9802e-08, -2.9802e-08, 0), (2.9802e-08, 1, -2.9802e-08, 0), (-0.1, 0.02, 0.1, 1) ), ( (2.9802e-08, 2.9802e-08, 1, 0), (1, -2.9802e-08, -2.9802e-08, 0), (2.9802e-08, 1, -2.9802e-08, 0), (-0.1, 0.02, 0.18, 1) )]
        uniform matrix4d[] restTransforms = [( (1.2688e-08, 1, 0, 0), (-1, 1.2688e-08, 0, 0), (0, 0, 1, 0), (0, 0, 0, 1) ), ( (1, -2.5376e-08, -0, 0), (2.5376e-08, 1, 0, 0), (0, -0, 1, 0), (0.92, -2.8842e-09, 0, 1) ), ( (1, -2.5376e-08, -0, 0), (2.5376e-08, 1, 0, 0), (0, -0, 1, 0), (0.06, -4.8663e-10, 0, 1) ), ( (1, -2.5376e-08, -0, 0), (2.5376e-08, 1, 0, 0), (0, -0, 1, 0), (0.0667, 1.5157e-09, 0, 1) ), ( (1, -2.5376e-08, -0, 0), (2.5376e-08, 1, 0, 0), (0, -0, 1, 0), (0.0667, 1.5157e-09, 0, 1) ), ( (1, -2.5376e-08, -0, 0), (2.5376e-08, 1, 0, 0), (0, -0, 1, 0), (0.0667, 1.5157e-09, 0, 1) ), ( (1, -2.5376e-08, -0, 0), (2.5376e-08, 1, 0, 0), (0, -0, 1, 0), (0.0667, 1.5157e-09, 0, 1) ), ( (1, -2.5376e-08, -0, 0), (2.5376e-08, 1, 0, 0), (0, -0, 1, 0), (0.0667, 1.5157e-09, 0, 1) ), ( (1, -2.5376e-08, -0, 0), (2.5376e-08, 1, 0, 0), (0, -0, 1, 0), (0.0667, 5.342e-10, 0, 1) ), ( (1, -2.5376e-08, -0, 0), (2.5376e-08, 1, 0, 0), (0, -0, 1, 0), (0.0398, 8.7648e-10, 0, 1) ), ( (1, -2.5376e-08, -0, 0), (2.5376e-08, 1, 0, 0), (0, -0, 1, 0), (0.033, 5.0114e-10, 0, 1) ), ( (1, -2.5376e-08, -0, 0), (2.5376e-08, 1, 0, 0), (0, -0, 1, 0), (0.033, 5.0114e-10, 0, 1) ), ( (1, -2.5376e-08, -0, 0), (2.5376e-08, 1, 0, 0), (0, -0, 1, 0), (0.033, 5.0114e-10, 0, 1) ), ( (1, -8.4981e-08, -0, 0), (8.4981e-08, 1, 0, 0), (0, -0, 1, 0), (0.031, 2.3114e-11, 0, 1) ), ( (-0.5145, 3.6777e-08, 0.85749, 0), (1.357e-08, -1, 5.1031e-08, 0), (0.85749, 3.7892e-08, 0.5145, 0), (0.01, 5.5727e-10, 0.04, 1) ), ( (1, -7.576e-08, 3.0571e-15, 0), (7.576e-08, 1, -8.0704e-08, 0), (3.0571e-15, 8.0704e-08, 1, 0), (0.05831, 3.7791e-09, -1.1176e-08, 1) ), ( (1, 3.4229e-08, 0, 0), (-3.4229e-08, 1, 0, 0), (0, 0, 1, 0), (0.07, 4.7022e-09, 0.1, 1) ), ( (-7.5748e-09, 0, 1, 0), (8.4294e-08, -1, 0, 0), (1, 8.4294e-08, -7.5748e-09, 0), (0.09, 0.03, 0.08, 1) ), ( (1, 0, 0, 0), (0, 1, 0, 0), (0, 0, 1, 0), (0.01, 0, 0.015, 1) ), ( (1, 0, 0, 0), (0, 1, 0, 0), (0, 0, 1, 0), (0.01, 0, -0.015, 1) ), ( (1, 0, 0, 0), (0, 1, 0, 0), (0, 0, 1, 0), (0.02, 0, 0, 1) ), ( (-7.5748e-09, 0, 1, 0), (8.4294e-08, -1, 0, 0), (1, 8.4294e-08, -7.5748e-09, 0), (0.09, -0.03, 0.08, 1) ), ( (1, 0, 0, 0), (0, 1, 0, 0), (0, 0, 1, 0), (0.01, 0, 0.015, 1) ), ( (1, 0, 0, 0), (0, 1, 0, 0), (0, 0, 1, 0), (0.01, 0, -0.015, 1) ), ( (1, 0, 0, 0), (0, 1, 0, 0), (0, 0, 1, 0), (0.02, 0, 0, 1) ), ( (1.2688e-08, 1, 0, 0), (-1, 1.2688e-08, 0, 0), (0, 0, 1, 0), (0.0198, 0.07, 0, 1) ), ( (1, 0, 0, 0), (0, 1, 0, 0), (0, 0, 1, 0), (0.12, 0, 0, 1) ), ( (1, 0, 0, 0), (0, 1, 0, 0), (0, 0, 1, 0), (0.28, 0, 0, 1) ), ( (1, 0, 0, 0), (0, 1, 0, 0), (0, 0, 1, 0), (0.26, 0, 0, 1) ), ( (1, 0, 0, 0), (0, 1, 0, 0), (0, 0, 1, 0), (0.03, 0, -0.04, 1) ), ( (1, 0, 0, 0), (0, 1, 0, 0), (0, 0, 1, 0), (0.06, 0, 0, 1) ), ( (1, 0, 0, 0), (0, 1, 0, 0), (0, 0, 1, 0), (0.0315, 0, 0, 1) ), ( (1, 0, 0, 0), (0, 1, 0, 0), (0, 0, 1, 0), (0.021, 0, 0, 1) ), ( (1, 0, 0, 0), (0, 1, 0, 0), (0, 0, 1, 0), (0.0175, 0, 0, 1) ), ( (1, 0, 0, 0), (0, 1, 0, 0), (0, 0, 1, 0), (0.03, 0, -0.016, 1) ), ( (1, 0, 0, 0), (0, 1, 0, 0), (0, 0, 1, 0), (0.06, 0, 0, 1) ), ( (1, 0, 0, 0), (0, 1, 0, 0), (0, 0, 1, 0), (0.03825, 0, 0, 1) ), ( (1, 0, 0, 0), (0, 1, 0, 0), (0, 0, 1, 0), (0.0255, 0, 0, 1) ), ( (1, 0, 0, 0), (0, 1, 0, 0), (0, 0, 1, 0), (0.02125, 0, 0, 1) ), ( (1, 0, 0, 0), (0, 1, 0, 0), (0, 0, 1, 0), (0.03, 0, 0, 1) ), ( (1, 0, 0, 0), (0, 1, 0, 0), (0, 0, 1, 0), (0.06, 0, 0, 1) ), ( (1, 0, 0, 0), (0, 1, 0, 0), (0, 0, 1, 0), (0.0405, 0, 0, 1) ), ( (1, 0, 0, 0), (0, 1, 0, 0), (0, 0, 1, 0), (0.027, 0, 0, 1) ), ( (1, 0, 0, 0), (0, 1, 0, 0), (0, 0, 1, 0), (0.0225, 0, 0, 1) ), ( (1, 0, 0, 0), (0, 1, 0, 0), (0, 0, 1, 0), (0.03, 0, 0.024, 1) ), ( (1, 0, 0, 0), (0, 1, 0, 0), (0, 0, 1, 0), (0.06, 0, 0, 1) ), ( (1, 0, 0, 0), (0, 1, 0, 0), (0, 0, 1, 0), (0.0369, 0, 0, 1) ), ( (1, 0, 0, 0), (0, 1, 0, 0), (0, 0, 1, 0), (0.0246, 0, 0, 1) ), ( (1, 0, 0, 0), (0, 1, 0, 0), (0, 0, 1, 0), (0.0205, 0, 0, 1) ), ( (0.762, 0.127, 0.635, 0), (-0.1644, 0.98639, 5.7418e-09, 0), (-0.62636, -0.10439, 0.77251, 0), (0.02, 0.01, 0.035, 1) ), ( (0.99435, -2.4291e-07, -0.10611, 0), (2.2362e-07, 1, -1.9365e-07, 0), (0.10611, 1.6883e-07, 0.99435, 0), (0.03937, 1.5676e-09, 2.794e-09, 1) ), ( (0.99838, 0.027789, -0.049621, 0), (-0.026939, 0.99948, 0.017715, 0), (0.050087, -0.01635, 0.99861, 0), (0.036401, 3.1337e-10, 0, 1) ), ( (1, 3.7062e-09, -1.4578e-17, 0), (-3.7062e-09, 1, -7.867e-09, 0), (-1.4578e-17, 7.867e-09, 1, 0), (0.02958, -1.7877e-10, -1.397e-09, 1) ), ( (1.2688e-08, -1, -0, 0), (1, 1.2688e-08, 0, 0), (0, -0, 1, 0), (0.0198, -0.07, 0, 1) ), ( (1, 0, 0, 0), (0, 1, 0, 0), (0, 0, 1, 0), (0.12, 0, 0, 1) ), ( (1, 0, 0, 0), (0, 1, 0, 0), (0, 0, 1, 0), (0.28, 0, 0, 1) ), ( (1, 0, 0, 0), (0, 1, 0, 0), (0, 0, 1, 0), (0.26, 0, 0, 1) ), ( (1, 0, 0, 0), (0, 1, 0, 0), (0, 0, 1, 0), (0.03, 0, -0.04, 1) ), ( (1, 0, 0, 0), (0, 1, 0, 0), (0, 0, 1, 0), (0.06, 0, 0, 1) ), ( (1, 0, 0, 0), (0, 1, 0, 0), (0, 0, 1, 0), (0.0315, 0, 0, 1) ), ( (1, 0, 0, 0), (0, 1, 0, 0), (0, 0, 1, 0), (0.021, 0, 0, 1) ), ( (1, 0, 0, 0), (0, 1, 0, 0), (0, 0, 1, 0), (0.0175, 0, 0, 1) ), ( (1, 0, 0, 0), (0, 1, 0, 0), (0, 0, 1, 0), (0.03, 0, -0.016, 1) ), ( (1, 0, 0, 0), (0, 1, 0, 0), (0, 0, 1, 0), (0.06, 0, 0, 1) ), ( (1, 0, 0, 0), (0, 1, 0, 0), (0, 0, 1, 0), (0.03825, 0, 0, 1) ), ( (1, 0, 0, 0), (0, 1, 0, 0), (0, 0, 1, 0), (0.0255, 0, 0, 1) ), ( (1, 0, 0, 0), (0, 1, 0, 0), (0, 0, 1, 0), (0.02125, 0, 0, 1) ), ( (1, 0, 0, 0), (0, 1, 0, 0), (0, 0, 1, 0), (0.03, 0, 0, 1) ), ( (1, 0, 0, 0), (0, 1, 0, 0), (0, 0, 1, 0), (0.06, 0, 0, 1) ), ( (1, 0, 0, 0), (0, 1, 0, 0), (0, 0, 1, 0), (0.0405, 0, 0, 1) ), ( (1, 0, 0, 0), (0, 1, 0, 0), (0, 0, 1, 0), (0.027, 0, 0, 1) ), ( (1, 0, 0, 0), (0, 1, 0, 0), (0, 0, 1, 0), (0.0225, 0, 0, 1) ), ( (1, 0, 0, 0), (0, 1, 0, 0), (0, 0, 1, 0), (0.03, 0, 0.024, 1) ), ( (1, 0, 0, 0), (0, 1, 0, 0), (0, 0, 1, 0), (0.06, 0, 0, 1) ), ( (1, 0, 0, 0), (0, 1, 0, 0), (0, 0, 1, 0), (0.0369, 0, 0, 1) ), ( (1, 0, 0, 0), (0, 1, 0, 0), (0, 0, 1, 0), (0.0246, 0, 0, 1) ), ( (1, 0, 0, 0), (0, 1, 0, 0), (0, 0, 1, 0), (0.0205, 0, 0, 1) ), ( (0.762, -0.127, 0.635, 0), (0.1644, 0.98639, 8.9033e-09, 0), (-0.62636, 0.10439, 0.77251, 0), (0.02, -0.01, 0.035, 1) ), ( (0.99435, 2.821e-07, -0.10611, 0), (-2.6169e-07, 1, 2.0633e-07, 0), (0.10611, -1.774e-07, 0.99435, 0), (0.03937, 2.3913e-10, -1.8626e-09, 1) ), ( (0.99838, -0.027789, -0.049621, 0), (0.026939, 0.99948, -0.017715, 0), (0.050087, 0.01635, 0.99861, 0), (0.036401, -3.4461e-10, -9.3132e-10, 1) ), ( (1, -2.0103e-09, -1.0367e-17, 0), (2.0103e-09, 1, 1.0314e-08, 0), (-1.0367e-17, -1.0314e-08, 1, 0), (0.02958, 3.0634e-10, -1.397e-09, 1) ), ( (-1, 2.5376e-08, 0, 0), (-2.5376e-08, -1, -0, 0), (-0, 0, 1, 0), (-0.02, -0.1, 0, 1) ), ( (1, 2.5376e-08, 0, 0), (-2.5376e-08, 1, 0, 0), (0, 0, 1, 0), (0.42, -9.0319e-10, 0, 1) ), ( (0.44721, -9.2859e-08, 0.89443, 0), (1.6301e-07, 1, 2.2315e-08, 0), (-0.89443, 1.3582e-07, 0.44721, 0), (0.41, -6.4931e-09, 0, 1) ), ( (0.89443, 5.2779e-08, 0.44721, 0), (-1.2125e-07, 1, 1.2448e-07, 0), (-0.44721, -1.6557e-07, 0.89443, 0), (0.1118, 1.3652e-08, -3.7253e-09, 1) ), ( (1, 0, 0, 0), (0, 1, 0, 0), (0, 0, 1, 0), (0.08, 0, 0, 1) ), ( (-1, 2.5376e-08, 0, 0), (-2.5376e-08, -1, -0, 0), (-0, 0, 1, 0), (-0.02, 0.1, 0, 1) ), ( (1, 2.5376e-08, 0, 0), (-2.5376e-08, 1, 0, 0), (0, 0, 1, 0), (0.42, -9.0319e-10, 0, 1) ), ( (0.44721, -9.2859e-08, 0.89443, 0), (1.6301e-07, 1, 2.2315e-08, 0), (-0.89443, 1.3582e-07, 0.44721, 0), (0.41, -6.4931e-09, 0, 1) ), ( (0.89443, 5.2779e-08, 0.44721, 0), (-1.2125e-07, 1, 1.2448e-07, 0), (-0.44721, -1.6557e-07, 0.89443, 0), (0.1118, 1.3652e-08, -3.7253e-09, 1) ), ( (1, 0, 0, 0), (0, 1, 0, 0), (0, 0, 1, 0), (0.08, 0, 0, 1) )]
    }

    def Mesh "Body" (
        prepend apiSchemas = ["SkelBindingAPI"]
    )
    {
        int[] faceVertexCounts = [4, 4, 4, 4, 4, 4, 4, 4, 4, 4, 4, 4, 4, 4, 4, 4, 4, 4, 4, 4, 4, 4, 4, 4, 4, 4, 4, 4, 4, 4, 4, 4, 4, 4, 4, 4, 4, 4, 4, 4, 4, 4, 4, 4, 4, 4, 4, 4, 4, 4, 4, 4, 4, 4, 4, 4, 4, 4, 4, 4, 4, 4, 4, 4, 4, 4, 4, 4, 4, 4, 4, 4, 4, 4, 4, 4, 4, 4, 4, 4, 4, 4, 4, 4, 4, 4, 4, 4, 4, 4]
        int[] faceVertexIndices = [0, 2, 3, 1, 4, 5, 7, 6, 0, 1, 5, 4, 2, 6, 7, 3, 0, 4, 6, 2, 1, 3, 7, 5, 8, 10, 11, 9, 12, 13, 15, 14, 8, 9, 13, 12, 10, 14, 15, 11, 8, 12, 14, 10, 9, 11, 15, 13, 16, 18, 19, 17, 20, 21, 23, 22, 16, 17, 21, 20, 18, 22, 23, 19, 16, 20, 22, 18, 17, 19, 23, 21, 24, 26, 27, 25, 28, 29, 31, 30, 24, 25, 29, 28, 26, 30, 31, 27, 24, 28, 30, 26, 25, 27, 31, 29, 32, 34, 35, 33, 36, 37, 39, 38, 32, 33, 37, 36, 34, 38, 39, 35, 32, 36, 38, 34, 33, 35, 39, 37, 40, 42, 43, 41, 44, 45, 47, 46, 40, 41, 45, 44, 42, 46, 47, 43, 40, 44, 46, 42, 41, 43, 47, 45, 48, 50, 51, 49, 52, 53, 55, 54, 48, 49, 53, 52, 50, 54, 55, 51, 48, 52, 54, 50, 49, 51, 55, 53, 56, 58, 59, 57, 60, 61, 63, 62, 56, 57, 61, 60, 58, 62, 63, 59, 56, 60, 62, 58, 57, 59, 63, 61, 64, 66, 67, 65, 68, 69, 71, 70, 64, 65, 69, 68, 66, 70, 71, 67, 64, 68, 70, 66, 65, 67, 71, 69, 72, 74, 75, 73, 76, 77, 79, 78, 72, 73, 77, 76, 74, 78, 79, 75, 72, 76, 78, 74, 73, 75, 79, 77, 80, 82, 83, 81, 84, 85, 87, 86, 80, 81, 85, 84, 82, 86, 87, 83, 80, 84, 86, 82, 81, 83, 87, 85, 88, 90, 91, 89, 92, 93, 95, 94, 88, 89, 93, 92, 90, 94, 95, 91, 88, 92, 94, 90, 89, 91, 95, 93, 96, 98, 99, 97, 100, 101, 103, 102, 96, 97, 101, 100, 98, 102, 103, 99, 96, 100, 102, 98, 97, 99, 103, 101, 104, 106, 107, 105, 108, 109, 111, 110, 104, 105, 109, 108, 106, 110, 111, 107, 104, 108, 110, 106, 105, 107, 111, 109, 112, 114, 115, 113, 116, 117, 119, 118, 112, 113, 117, 116, 114, 118, 119, 115, 112, 116, 118, 114, 113, 115, 119, 117]
        point3f[] points = [(0.15, 0.92, -0.15), (0.15, 1.3802, -0.15), (-0.15, 0.92, -0.15), (-0.15, 1.3802, -0.15), (0.15, 0.92, 0.15), (0.15, 1.3802, 0.15), (-0.15, 0.92, 0.15), (-0.15, 1.3802, 0.15), (0.05, 1.42, -0.05), (0.05, 1.55, -0.05), (-0.05, 1.42, -0.05), (-0.05, 1.55, -0.05), (0.05, 1.42, 0.05), (0.05, 1.55, 0.05), (-0.05, 1.42, 0.05), (-0.05, 1.55, 0.05), (0.11, 1.55, -0.11), (0.11, 1.79, -0.11), (-0.11, 1.55, -0.11), (-0.11, 1.79, -0.11), (0.11, 1.55, 0.11), (0.11, 1.79, 0.11), (-0.11, 1.55, 0.11), (-0.11, 1.79, 0.11), (0.19, 1.35, -0.05), (0.47, 1.35, -0.05), (0.19, 1.45, -0.05), (0.47, 1.45, -0.05), (0.19, 1.35, 0.05), (0.47, 1.35, 0.05), (0.19, 1.45, 0.05), (0.47, 1.45, 0.05), (0.47, 1.3575, -0.0425), (0.73, 1.3575, -0.0425), (0.47, 1.4425, -0.0425), (0.73, 1.4425, -0.0425), (0.47, 1.3575, 0.0425), (0.73, 1.3575, 0.0425), (0.47, 1.4425, 0.0425), (0.73, 1.4425, 0.0425), (0.73, 1.365, -0.035), (0.91, 1.365, -0.035), (0.73, 1.435, -0.035), (0.91, 1.435, -0.035), (0.73, 1.365, 0.035), (0.91, 1.365, 0.035), (0.73, 1.435, 0.035), (0.91, 1.435, 0.035), (0.03, 0.9, -0.07), (0.03, 0.48, -0.07), (0.17, 0.9, -0.07), (0.17, 0.48, -0.07), (0.03, 0.9, 0.07), (0.03, 0.48, 0.07), (0.17, 0.9, 0.07), (0.17, 0.48, 0.07), (0.045, 0.48, -0.055), (0.045, 0.07, -0.055), (0.155, 0.48, -0.055), (0.155, 0.07, -0.055), (0.045, 0.48, 0.055), (0.045, 0.07, 0.055), (0.155, 0.48, 0.055), (0.155, 0.07, 0.055), (0.055, 0.026642, -0.012044), (0.055, -0.023358, 0.16796), (0.145, 0.026642, -0.012044), (0.145, -0.023358, 0.16796), (0.055, 0.11336, 0.012044), (0.055, 0.063358, 0.19204), (0.145, 0.11336, 0.012044), (0.145, 0.063358, 0.19204), (-0.19, 1.45, -0.05), (-0.47, 1.45, -0.05), (-0.19, 1.35, -0.05), (-0.47, 1.35, -0.05), (-0.19, 1.45, 0.05), (-0.47, 1.45, 0.05), (-0.19, 1.35, 0.05), (-0.47, 1.35, 0.05), (-0.47, 1.4425, -0.0425), (-0.73, 1.4425, -0.0425), (-0.47, 1.3575, -0.0425), (-0.73, 1.3575, -0.0425), (-0.47, 1.4425, 0.0425), (-0.73, 1.4425, 0.0425), (-0.47, 1.3575, 0.0425), (-0.73, 1.3575, 0.0425), (-0.73, 1.435, -0.035), (-0.91, 1.435, -0.035), (-0.73, 1.365, -0.035), (-0.91, 1.365, -0.035), (-0.73, 1.435, 0.035), (-0.91, 1.435, 0.035), (-0.73, 1.365, 0.035), (-0.91, 1.365, 0.035), (-0.17, 0.9, -0.07), (-0.17, 0.48, -0.07), (-0.03, 0.9, -0.07), (-0.03, 0.48, -0.07), (-0.17, 0.9, 0.07), (-0.17, 0.48, 0.07), (-0.03, 0.9, 0.07), (-0.03, 0.48, 0.07), (-0.155, 0.48, -0.055), (-0.155, 0.07, -0.055), (-0.045, 0.48, -0.055), (-0.045, 0.07, -0.055), (-0.155, 0.48, 0.055), (-0.155, 0.07, 0.055), (-0.045, 0.48, 0.055), (-0.045, 0.07, 0.055), (-0.145, 0.026642, -0.012044), (-0.145, -0.023358, 0.16796), (-0.055, 0.026642, -0.012044), (-0.055, -0.023358, 0.16796), (-0.145, 0.11336, 0.012044), (-0.145, 0.063358, 0.19204), (-0.055, 0.11336, 0.012044), (-0.055, 0.063358, 0.19204)]
        color3f[] primvars:displayColor = [(0.25, 0.55, 0.95), (0.25, 0.55, 0.95), (0.25, 0.55, 0.95), (0.25, 0.55, 0.95), (0.25, 0.55, 0.95), (0.25, 0.55, 0.95), (0.25, 0.55, 0.95), (0.25, 0.55, 0.95), (0.93, 0.78, 0.62), (0.93, 0.78, 0.62), (0.93, 0.78, 0.62), (0.93, 0.78, 0.62), (0.93, 0.78, 0.62), (0.93, 0.78, 0.62), (0.93, 0.78, 0.62), (0.93, 0.78, 0.62), (0.93, 0.78, 0.62), (0.93, 0.78, 0.62), (0.93, 0.78, 0.62), (0.93, 0.78, 0.62), (0.93, 0.78, 0.62), (0.93, 0.78, 0.62), (0.93, 0.78, 0.62), (0.93, 0.78, 0.62), (0.25, 0.55, 0.95), (0.25, 0.55, 0.95), (0.25, 0.55, 0.95), (0.25, 0.55, 0.95), (0.25, 0.55, 0.95), (0.25, 0.55, 0.95), (0.25, 0.55, 0.95), (0.25, 0.55, 0.95), (0.93, 0.78, 0.62), (0.93, 0.78, 0.62), (0.93, 0.78, 0.62), (0.93, 0.78, 0.62), (0.93, 0.78, 0.62), (0.93, 0.78, 0.62), (0.93, 0.78, 0.62), (0.93, 0.78, 0.62), (0.93, 0.78, 0.62), (0.93, 0.78, 0.62), (0.93, 0.78, 0.62), (0.93, 0.78, 0.62), (0.93, 0.78, 0.62), (0.93, 0.78, 0.62), (0.93, 0.78, 0.62), (0.93, 0.78, 0.62), (0.25, 0.28, 0.45), (0.25, 0.28, 0.45), (0.25, 0.28, 0.45), (0.25, 0.28, 0.45), (0.25, 0.28, 0.45), (0.25, 0.28, 0.45), (0.25, 0.28, 0.45), (0.25, 0.28, 0.45), (0.25, 0.28, 0.45), (0.25, 0.28, 0.45), (0.25, 0.28, 0.45), (0.25, 0.28, 0.45), (0.25, 0.28, 0.45), (0.25, 0.28, 0.45), (0.25, 0.28, 0.45), (0.25, 0.28, 0.45), (0.15, 0.15, 0.17), (0.15, 0.15, 0.17), (0.15, 0.15, 0.17), (0.15, 0.15, 0.17), (0.15, 0.15, 0.17), (0.15, 0.15, 0.17), (0.15, 0.15, 0.17), (0.15, 0.15, 0.17), (0.25, 0.55, 0.95), (0.25, 0.55, 0.95), (0.25, 0.55, 0.95), (0.25, 0.55, 0.95), (0.25, 0.55, 0.95), (0.25, 0.55, 0.95), (0.25, 0.55, 0.95), (0.25, 0.55, 0.95), (0.93, 0.78, 0.62), (0.93, 0.78, 0.62), (0.93, 0.78, 0.62), (0.93, 0.78, 0.62), (0.93, 0.78, 0.62), (0.93, 0.78, 0.62), (0.93, 0.78, 0.62), (0.93, 0.78, 0.62), (0.93, 0.78, 0.62), (0.93, 0.78, 0.62), (0.93, 0.78, 0.62), (0.93, 0.78, 0.62), (0.93, 0.78, 0.62), (0.93, 0.78, 0.62), (0.93, 0.78, 0.62), (0.93, 0.78, 0.62), (0.25, 0.28, 0.45), (0.25, 0.28, 0.45), (0.25, 0.28, 0.45), (0.25, 0.28, 0.45), (0.25, 0.28, 0.45), (0.25, 0.28, 0.45), (0.25, 0.28, 0.45), (0.25, 0.28, 0.45), (0.25, 0.28, 0.45), (0.25, 0.28, 0.45), (0.25, 0.28, 0.45), (0.25, 0.28, 0.45), (0.25, 0.28, 0.45), (0.25, 0.28, 0.45), (0.25, 0.28, 0.45), (0.25, 0.28, 0.45), (0.15, 0.15, 0.17), (0.15, 0.15, 0.17), (0.15, 0.15, 0.17), (0.15, 0.15, 0.17), (0.15, 0.15, 0.17), (0.15, 0.15, 0.17), (0.15, 0.15, 0.17), (0.15, 0.15, 0.17)] (
            interpolation = "vertex"
        )
        int[] primvars:skel:jointIndices = [1, 1, 1, 1, 1, 1, 1, 1, 9, 9, 9, 9, 9, 9, 9, 9, 13, 13, 13, 13, 13, 13, 13, 13, 54, 54, 54, 54, 54, 54, 54, 54, 55, 55, 55, 55, 55, 55, 55, 55, 56, 56, 56, 56, 56, 56, 56, 56, 81, 81, 81, 81, 81, 81, 81, 81, 82, 82, 82, 82, 82, 82, 82, 82, 83, 83, 83, 83, 83, 83, 83, 83, 26, 26, 26, 26, 26, 26, 26, 26, 27, 27, 27, 27, 27, 27, 27, 27, 28, 28, 28, 28, 28, 28, 28, 28, 86, 86, 86, 86, 86, 86, 86, 86, 87, 87, 87, 87, 87, 87, 87, 87, 88, 88, 88, 88, 88, 88, 88, 88] (
            elementSize = 1
            interpolation = "vertex"
        )
        float[] primvars:skel:jointWeights = [1, 1, 1, 1, 1, 1, 1, 1, 1, 1, 1, 1, 1, 1, 1, 1, 1, 1, 1, 1, 1, 1, 1, 1, 1, 1, 1, 1, 1, 1, 1, 1, 1, 1, 1, 1, 1, 1, 1, 1, 1, 1, 1, 1, 1, 1, 1, 1, 1, 1, 1, 1, 1, 1, 1, 1, 1, 1, 1, 1, 1, 1, 1, 1, 1, 1, 1, 1, 1, 1, 1, 1, 1, 1, 1, 1, 1, 1, 1, 1, 1, 1, 1, 1, 1, 1, 1, 1, 1, 1, 1, 1, 1, 1, 1, 1, 1, 1, 1, 1, 1, 1, 1, 1, 1, 1, 1, 1, 1, 1, 1, 1, 1, 1, 1, 1, 1, 1, 1, 1] (
            elementSize = 1
            interpolation = "vertex"
        )
        matrix4d primvars:skel:geomBindTransform = ( (1, 0, 0, 0), (0, 1, 0, 0), (0, 0, 1, 0), (0, 0, 0, 1) )
        rel skel:skeleton = </Blocky/Skeleton>
        uniform token subdivisionScheme = "none"
    }
}
